# xmcd
#
# Track frame offsets: 
#        150
#        19415
#        34847
#
# Disc length: 701 seconds
#
# Revision: 3
# Processed by: cddbd v1.5.2PL0 Copyright (c) Steve Scherf et al.
# Submitted via: ExactAudioCopy v0.99pb3
#
DISCID=1f02bb03
DTITLE=Sundown - Halo CDs
DYEAR=1999
DGENRE=Gothic Rock
TTITLE0=Halo
TTITLE1=Warp
TTITLE2=19[99]
EXTD=YEAR: 1999 ID3G: 9
EXTT0=
EXTT1=
EXTT2=
PLAYORDER=
